<svg width="57" height="55" viewBox="0 0 57 55" fill="none" xmlns="http://www.w3.org/2000/svg">
<path d="M55.762 6.4797C55.6985 6.32381 55.5897 6.18948 55.4491 6.09327C55.3084 5.99707 55.142 5.94319 54.9703 5.93829L50.7307 5.80939L50.4932 1.6672C50.4834 1.50051 50.4241 1.34021 50.3226 1.20591C50.221 1.07161 50.0816 0.969111 49.9214 0.910947C49.7611 0.852023 49.5865 0.840151 49.4193 0.876792C49.2521 0.913432 49.0995 0.996989 48.9803 1.1172L43.1046 7.00392C37.8456 3.43661 31.4112 1.91985 25.0658 2.7517C18.7204 3.58355 12.9228 6.70386 8.81235 11.4995C4.70187 16.2951 2.57569 22.4192 2.85161 28.6685C3.12753 34.9177 5.7856 40.8403 10.3035 45.2722C14.8214 49.7042 20.8724 52.3251 27.2676 52.62C33.6627 52.9149 39.9395 50.8624 44.8646 46.8659C49.7896 42.8694 53.0068 37.2178 53.8839 31.0217C54.7611 24.8256 53.2347 18.533 49.6048 13.3805L55.5772 7.36485C55.6891 7.24861 55.7656 7.10423 55.7982 6.9479C55.8309 6.79157 55.8183 6.62945 55.762 6.4797ZM48.9979 6.37657L43.7995 11.4555L44.0633 8.49923L48.8483 3.7211L48.9979 6.37657ZM32.136 27.5C32.1483 28.2695 31.8992 29.0212 31.4278 29.6376C30.9563 30.2541 30.289 30.7005 29.5303 30.907C28.7715 31.1136 27.9641 31.0686 27.2343 30.7792C26.5045 30.4898 25.8934 29.9722 25.4967 29.3074C25.0999 28.6427 24.9399 27.8682 25.0415 27.1051C25.1432 26.342 25.5008 25.6333 26.0585 25.0899C26.6162 24.5465 27.3425 24.199 28.1239 24.1017C28.9052 24.0045 29.6975 24.1629 30.3768 24.5524L27.9755 26.8899C27.8931 26.9697 27.8277 27.0648 27.783 27.1695C27.7383 27.2742 27.7154 27.3866 27.7154 27.5C27.7154 27.6135 27.7383 27.7258 27.783 27.8305C27.8277 27.9352 27.8931 28.0303 27.9755 28.1102C28.0573 28.1907 28.1546 28.2546 28.2618 28.2983C28.369 28.3419 28.4839 28.3644 28.6 28.3644C28.7162 28.3644 28.8311 28.3419 28.9383 28.2983C29.0455 28.2546 29.1428 28.1907 29.2246 28.1102L31.6347 25.7813C31.954 26.301 32.1269 26.8939 32.136 27.5ZM31.6698 23.2977C30.591 22.5495 29.2639 22.2246 27.9514 22.3871C26.6389 22.5497 25.4368 23.1879 24.5832 24.1754C23.7295 25.1629 23.2867 26.4277 23.3423 27.7191C23.3979 29.0105 23.9479 30.2345 24.8834 31.1484C25.8188 32.0624 27.0716 32.5998 28.3934 32.6541C29.7152 32.7084 31.0097 32.2757 32.0204 31.4417C33.0312 30.6077 33.6844 29.4332 33.8508 28.1509C34.0172 26.8686 33.6846 25.572 32.9189 24.518L36.6659 20.8484C38.425 22.8797 39.3124 25.4967 39.1426 28.1524C38.9728 30.808 37.759 33.2967 35.7548 35.0983C33.7507 36.9 31.1114 37.875 28.3885 37.8197C25.6657 37.7644 23.0701 36.6829 21.1444 34.8015C19.2187 32.92 18.1118 30.3841 18.0551 27.7239C17.9985 25.0636 18.9965 22.485 20.8405 20.5269C22.6845 18.5688 25.2318 17.3829 27.9499 17.217C30.6681 17.0511 33.3466 17.9181 35.4257 19.6367L31.6698 23.2977ZM36.6659 18.4164C34.2547 16.3767 31.1275 15.3305 27.9427 15.4982C24.7578 15.6659 21.7638 17.0343 19.5909 19.3154C17.418 21.5965 16.2357 24.6123 16.293 27.7279C16.3502 30.8436 17.6425 33.816 19.8978 36.0194C22.1531 38.2229 25.1954 39.4854 28.3843 39.5414C31.5733 39.5973 34.66 38.4422 36.9948 36.3192C39.3296 34.1963 40.7302 31.2711 40.9018 28.1595C41.0734 25.0478 40.0027 21.9925 37.915 19.6367L41.3542 16.268C44.487 19.3865 46.2492 23.5772 46.2652 27.9468C46.2811 32.3164 44.5494 36.5193 41.4394 39.6595C38.3293 42.7997 34.0868 44.6289 29.6163 44.757C25.1458 44.8852 20.8008 43.3023 17.5076 40.3457C14.2144 37.3891 12.2335 33.2927 11.9871 28.9296C11.7407 24.5666 13.2483 20.2822 16.1886 16.9895C19.1289 13.6969 23.2692 11.6566 27.7271 11.3034C32.1849 10.9503 36.6076 12.3124 40.0524 15.0992L36.6659 18.4164ZM28.6176 50.7031C24.876 50.717 21.1839 49.8669 17.8424 48.2221C14.5008 46.5773 11.6043 44.1844 9.38894 41.2384C7.17355 38.2924 5.70197 34.8767 5.09413 31.2696C4.48629 27.6625 4.75939 23.9661 5.89118 20.4817C7.02296 16.9973 8.9814 13.8234 11.6069 11.2188C14.2324 8.61423 17.4506 6.65257 20.9993 5.49373C24.548 4.33489 28.3267 4.01166 32.0276 4.55038C35.7284 5.08911 39.2466 6.47454 42.2953 8.59376L41.8556 13.3977L41.3102 13.9219C37.5361 10.77 32.6496 9.18598 27.6956 9.50855C22.7416 9.83112 18.1134 12.0347 14.8008 15.648C11.4882 19.2613 9.75408 23.9975 9.96938 28.8438C10.1847 33.6901 12.3323 38.2617 15.9529 41.5811C19.5734 44.9004 24.3796 46.7039 29.3436 46.6058C34.3076 46.5078 39.0353 44.5161 42.5157 41.0566C45.996 37.5971 47.9528 32.9444 47.9675 28.0936C47.9823 23.2428 46.0537 18.5788 42.5944 15.0992L42.955 14.7469L47.9687 14.1281C50.4736 17.5986 51.9556 21.6741 52.2534 25.9107C52.5511 30.1473 51.6531 34.3825 49.6572 38.1549C47.6613 41.9272 44.6441 45.0921 40.9342 47.3047C37.2243 49.5174 32.9641 50.6928 28.6176 50.7031ZM48.1447 12.3836L44.9605 12.7445L50.3173 7.51954L52.956 7.59689L48.1447 12.3836Z" fill="url(#paint0_linear_1_697)"/>
<defs>
<linearGradient id="paint0_linear_1_697" x1="8.71239" y1="11.3524" x2="52.3662" y2="37.1449" gradientUnits="userSpaceOnUse">
<stop stop-color="#FFE0B2"/>
<stop offset="0.04" stop-color="#FFDBA6"/>
<stop offset="0.17" stop-color="#FECB80"/>
<stop offset="0.29" stop-color="#FDC064"/>
<stop offset="0.4" stop-color="#FCB853"/>
<stop offset="0.48" stop-color="#FCB64D"/>
<stop offset="0.74" stop-color="#FAA338"/>
<stop offset="1" stop-color="#F78C1E"/>
</linearGradient>
</defs>
</svg>
