<svg width="15" height="14" viewBox="0 0 15 14" fill="none" xmlns="http://www.w3.org/2000/svg">
<g clip-path="url(#clip0_1_50)">
<path d="M7.62303 0C5.78444 0 5.55311 0.00771127 4.83155 0.0407596C4.27018 0.0521694 3.7148 0.1587 3.18905 0.35582C2.73717 0.524765 2.32799 0.791036 1.9905 1.13576C1.64608 1.47394 1.37922 1.88288 1.20836 2.33431C1.01116 2.86038 0.904989 3.4162 0.894397 3.97791C0.862451 4.69947 0.853638 4.92971 0.853638 6.76829C0.853638 8.60688 0.861349 8.83601 0.894397 9.55867C0.905807 10.12 1.01234 10.6754 1.20946 11.2012C1.37923 11.6526 1.64539 12.0616 1.9894 12.3997C2.32728 12.7445 2.73631 13.0114 3.18795 13.1819C3.71417 13.3785 4.26989 13.4847 4.83155 13.4958C5.55311 13.5289 5.78334 13.5366 7.62193 13.5366C9.46052 13.5366 9.68965 13.5289 10.4123 13.4958C10.974 13.4847 11.5297 13.3785 12.0559 13.1819C12.5061 13.0073 12.9149 12.7408 13.2563 12.3994C13.5977 12.0579 13.8642 11.6491 14.0388 11.199C14.2349 10.6729 14.3414 10.1177 14.3539 9.55647C14.3858 8.83491 14.3946 8.60468 14.3946 6.76609C14.3946 4.9275 14.3858 4.69727 14.3539 3.97571C14.3414 3.41409 14.2349 2.85854 14.0388 2.33211C13.8688 1.88052 13.6022 1.47148 13.2578 1.13356C12.9205 0.78858 12.5112 0.52227 12.0592 0.353617C11.5316 0.156761 10.9743 0.0509699 10.4112 0.0407596C9.68855 0.00771127 9.45942 0 7.62083 0H7.62303ZM7.01494 1.21948H7.62303C9.42967 1.21948 9.64338 1.22609 10.3572 1.25914C10.7864 1.26403 11.2116 1.34265 11.6142 1.49158C11.9081 1.60015 12.1739 1.77332 12.3919 1.99832C12.6164 2.21675 12.7895 2.48242 12.8986 2.77606C13.0476 3.17862 13.1262 3.60379 13.1311 4.03299C13.1641 4.74574 13.1707 4.96055 13.1707 6.76719C13.1707 8.57383 13.1641 8.78754 13.1311 9.50139C13.1263 9.93024 13.0477 10.3551 12.8986 10.7572C12.7859 11.0489 12.6134 11.3138 12.3922 11.5348C12.1709 11.7558 11.9059 11.9281 11.6142 12.0406C11.2119 12.1907 10.7866 12.2697 10.3572 12.2741C9.64449 12.3072 9.42967 12.3138 7.62303 12.3138C5.81639 12.3138 5.60158 12.3072 4.88773 12.2741C4.45847 12.2689 4.0333 12.1899 3.6308 12.0406C3.3366 11.9325 3.07044 11.7597 2.85196 11.535C2.62736 11.3168 2.45457 11.051 2.34632 10.7572C2.19701 10.3547 2.11802 9.92955 2.11278 9.50029C2.08083 8.78644 2.07422 8.57273 2.07422 6.76499C2.07422 4.95725 2.08083 4.74464 2.11278 4.03079C2.11735 3.60146 2.19637 3.17618 2.34632 2.77385C2.45457 2.48005 2.62736 2.21428 2.85196 1.99612C3.07061 1.77133 3.3367 1.59821 3.6308 1.48938C4.03342 1.34053 4.45851 1.26155 4.88773 1.25584C5.51235 1.2283 5.7536 1.21948 7.01494 1.21838V1.21948ZM11.2352 2.34312C11.0744 2.34312 10.9171 2.39083 10.7834 2.48021C10.6497 2.5696 10.5455 2.69663 10.484 2.84525C10.4225 2.99387 10.4065 3.15739 10.4379 3.31512C10.4694 3.47286 10.5469 3.61772 10.6607 3.73137C10.7745 3.84503 10.9195 3.92237 11.0773 3.95361C11.2351 3.98486 11.3986 3.9686 11.5471 3.9069C11.6956 3.8452 11.8225 3.74082 11.9117 3.60698C12.0009 3.47314 12.0484 3.31585 12.0482 3.15501C12.0482 3.0483 12.0272 2.94264 11.9863 2.84406C11.9454 2.74549 11.8855 2.65594 11.81 2.58053C11.7345 2.50513 11.6449 2.44535 11.5462 2.40461C11.4476 2.36387 11.3419 2.34298 11.2352 2.34312ZM7.62303 3.29271C6.93563 3.29271 6.26366 3.49655 5.6921 3.87845C5.12055 4.26036 4.67507 4.80317 4.41201 5.43825C4.14896 6.07333 4.08013 6.77215 4.21423 7.44634C4.34834 8.12054 4.67936 8.73983 5.16543 9.2259C5.65149 9.71197 6.27078 10.043 6.94498 10.1771C7.61918 10.3112 8.318 10.2424 8.95308 9.97931C9.58816 9.71625 10.131 9.27078 10.5129 8.69922C10.8948 8.12767 11.0986 7.4557 11.0986 6.76829C11.0983 5.8466 10.732 4.96274 10.0803 4.31101C9.42858 3.65927 8.54472 3.293 7.62303 3.29271ZM7.62303 4.5122C8.06939 4.51154 8.5059 4.6433 8.87735 4.89081C9.2488 5.13831 9.53848 5.49044 9.70975 5.90263C9.88101 6.31482 9.92616 6.76855 9.83949 7.20641C9.75281 7.64426 9.5382 8.04657 9.22281 8.36242C8.90742 8.67827 8.50543 8.89348 8.0677 8.98079C7.62997 9.06812 7.17617 9.02363 6.76373 8.85297C6.35129 8.68231 5.99874 8.39314 5.75069 8.02206C5.50264 7.65097 5.37024 7.21465 5.37024 6.76829C5.3714 6.17127 5.60916 5.59906 6.03142 5.177C6.45368 4.75495 7.02601 4.51748 7.62303 4.5166V4.5122Z" fill="white"/>
</g>
<defs>
<clipPath id="clip0_1_50">
<rect width="13.5366" height="13.5366" fill="white" transform="translate(0.853638)"/>
</clipPath>
</defs>
</svg>
