<svg width="56" height="50" viewBox="0 0 56 50" fill="none" xmlns="http://www.w3.org/2000/svg">
<path d="M52.5 21.5L42 28.5C42 26.3755 41.034 24.496 39.5395 23.2115C43.0972 21.0677 45.5 17.2055 45.5 12.75C45.5 5.98443 40.0155 0.5 33.25 0.5C26.4845 0.5 21 5.98452 21 12.75C21 16.1817 22.4192 19.2757 24.6943 21.5H18.2752C19.9517 19.6397 21 17.202 21 14.5C21 8.70052 16.2995 4 10.5 4C4.70052 4 0 8.70052 0 14.5C0 17.664 1.42974 20.4675 3.64348 22.3925C1.48226 23.5843 0 25.8575 0 28.5V42.5C0 46.3657 3.13426 49.5 7 49.5H35C38.8657 49.5 42 46.3657 42 42.5V40.75L52.5 49.5C54.4337 49.5 56 47.9337 56 46V25C56 23.0663 54.4337 21.5 52.5 21.5ZM3.5 14.5C3.5 10.6343 6.63426 7.5 10.5 7.5C14.3657 7.5 17.5 10.6343 17.5 14.5C17.5 18.3657 14.3657 21.5 10.5 21.5C6.63426 21.5 3.5 18.3657 3.5 14.5ZM38.5 42.5C38.5 44.432 36.9337 46 35 46H7C5.06626 46 3.5 44.4337 3.5 42.5V28.5C3.5 26.5663 5.06626 25 7 25H35C36.9337 25 38.5 26.5663 38.5 28.5V42.5ZM33.25 21.5192C28.406 21.5192 24.4808 17.5922 24.4808 12.75C24.4808 7.906 28.4078 3.98078 33.25 3.98078C38.0922 3.98078 42.0192 7.906 42.0192 12.75C42.0192 17.594 38.0939 21.5192 33.25 21.5192ZM52.5 46L42 37.25V32L52.5 25V46Z" fill="url(#paint0_linear_1_689)"/>
<defs>
<linearGradient id="paint0_linear_1_689" x1="28" y1="0.5" x2="28" y2="49.5" gradientUnits="userSpaceOnUse">
<stop stop-color="#FDC064"/>
<stop offset="1" stop-color="#F99A2E"/>
</linearGradient>
</defs>
</svg>
