<svg width="58" height="329" viewBox="0 0 58 329" fill="none" xmlns="http://www.w3.org/2000/svg">
<g opacity="0.5">
<circle cx="3.83334" cy="3.61111" r="3.61111" fill="#EF3DFF"/>
<circle cx="3.83334" cy="102.659" r="3.61111" fill="#EF3DFF"/>
<circle cx="3.83334" cy="53.135" r="3.61111" fill="#EF3DFF"/>
<circle cx="3.83334" cy="152.183" r="3.61111" fill="#EF3DFF"/>
<circle cx="3.83334" cy="28.373" r="3.61111" fill="#EF3DFF"/>
<circle cx="3.83334" cy="127.421" r="3.61111" fill="#EF3DFF"/>
<circle cx="3.83334" cy="77.8968" r="3.61111" fill="#EF3DFF"/>
<circle cx="3.83334" cy="176.944" r="3.61111" fill="#EF3DFF"/>
<circle cx="3.83334" cy="15.992" r="3.61111" fill="#EF3DFF"/>
<circle cx="3.83334" cy="115.04" r="3.61111" fill="#EF3DFF"/>
<circle cx="3.83334" cy="65.5159" r="3.61111" fill="#EF3DFF"/>
<circle cx="3.83334" cy="164.564" r="3.61111" fill="#EF3DFF"/>
<circle cx="3.83334" cy="40.7539" r="3.61111" fill="#EF3DFF"/>
<circle cx="3.83334" cy="139.802" r="3.61111" fill="#EF3DFF"/>
<circle cx="3.83334" cy="90.2778" r="3.61111" fill="#EF3DFF"/>
<circle cx="3.83334" cy="189.325" r="3.61111" fill="#EF3DFF"/>
<circle cx="3.83334" cy="139.389" r="3.61111" fill="#EF3DFF"/>
<circle cx="3.83334" cy="238.437" r="3.61111" fill="#EF3DFF"/>
<circle cx="3.83334" cy="188.913" r="3.61111" fill="#EF3DFF"/>
<circle cx="3.83334" cy="287.96" r="3.61111" fill="#EF3DFF"/>
<circle cx="3.83334" cy="164.151" r="3.61111" fill="#EF3DFF"/>
<circle cx="3.83334" cy="263.198" r="3.61111" fill="#EF3DFF"/>
<circle cx="3.83334" cy="213.675" r="3.61111" fill="#EF3DFF"/>
<circle cx="3.83334" cy="312.722" r="3.61111" fill="#EF3DFF"/>
<circle cx="3.83334" cy="151.77" r="3.61111" fill="#EF3DFF"/>
<circle cx="3.83334" cy="250.817" r="3.61111" fill="#EF3DFF"/>
<circle cx="3.83334" cy="201.294" r="3.61111" fill="#EF3DFF"/>
<circle cx="3.83334" cy="300.341" r="3.61111" fill="#EF3DFF"/>
<circle cx="3.83334" cy="176.532" r="3.61111" fill="#EF3DFF"/>
<circle cx="3.83334" cy="275.579" r="3.61111" fill="#EF3DFF"/>
<circle cx="3.83334" cy="226.056" r="3.61111" fill="#EF3DFF"/>
<circle cx="3.83334" cy="325.103" r="3.61111" fill="#EF3DFF"/>
<circle cx="13.9444" cy="3.61111" r="3.61111" fill="#EF3DFF"/>
<circle cx="13.9444" cy="102.659" r="3.61111" fill="#EF3DFF"/>
<circle cx="13.9444" cy="53.135" r="3.61111" fill="#EF3DFF"/>
<circle cx="13.9444" cy="152.183" r="3.61111" fill="#EF3DFF"/>
<circle cx="13.9444" cy="28.373" r="3.61111" fill="#EF3DFF"/>
<circle cx="13.9444" cy="127.421" r="3.61111" fill="#EF3DFF"/>
<circle cx="13.9444" cy="77.8968" r="3.61111" fill="#EF3DFF"/>
<circle cx="13.9444" cy="176.944" r="3.61111" fill="#EF3DFF"/>
<circle cx="13.9444" cy="15.992" r="3.61111" fill="#EF3DFF"/>
<circle cx="13.9444" cy="115.04" r="3.61111" fill="#EF3DFF"/>
<circle cx="13.9444" cy="65.5159" r="3.61111" fill="#EF3DFF"/>
<circle cx="13.9444" cy="164.564" r="3.61111" fill="#EF3DFF"/>
<circle cx="13.9444" cy="40.7539" r="3.61111" fill="#EF3DFF"/>
<circle cx="13.9444" cy="139.802" r="3.61111" fill="#EF3DFF"/>
<circle cx="13.9444" cy="90.2778" r="3.61111" fill="#EF3DFF"/>
<circle cx="13.9444" cy="189.325" r="3.61111" fill="#EF3DFF"/>
<circle cx="13.9444" cy="139.389" r="3.61111" fill="#EF3DFF"/>
<circle cx="13.9444" cy="238.437" r="3.61111" fill="#EF3DFF"/>
<circle cx="13.9444" cy="188.913" r="3.61111" fill="#EF3DFF"/>
<circle cx="13.9444" cy="287.96" r="3.61111" fill="#EF3DFF"/>
<circle cx="13.9444" cy="164.151" r="3.61111" fill="#EF3DFF"/>
<circle cx="13.9444" cy="263.198" r="3.61111" fill="#EF3DFF"/>
<circle cx="13.9444" cy="213.675" r="3.61111" fill="#EF3DFF"/>
<circle cx="13.9444" cy="312.722" r="3.61111" fill="#EF3DFF"/>
<circle cx="13.9444" cy="151.77" r="3.61111" fill="#EF3DFF"/>
<circle cx="13.9444" cy="250.817" r="3.61111" fill="#EF3DFF"/>
<circle cx="13.9444" cy="201.294" r="3.61111" fill="#EF3DFF"/>
<circle cx="13.9444" cy="300.341" r="3.61111" fill="#EF3DFF"/>
<circle cx="13.9444" cy="176.532" r="3.61111" fill="#EF3DFF"/>
<circle cx="13.9444" cy="275.579" r="3.61111" fill="#EF3DFF"/>
<circle cx="13.9444" cy="226.056" r="3.61111" fill="#EF3DFF"/>
<circle cx="13.9444" cy="325.103" r="3.61111" fill="#EF3DFF"/>
<circle cx="24.0556" cy="3.61114" r="3.61111" fill="#EF3DFF"/>
<circle cx="24.0556" cy="102.659" r="3.61111" fill="#EF3DFF"/>
<circle cx="24.0556" cy="53.135" r="3.61111" fill="#EF3DFF"/>
<circle cx="24.0556" cy="152.183" r="3.61111" fill="#EF3DFF"/>
<circle cx="24.0556" cy="28.373" r="3.61111" fill="#EF3DFF"/>
<circle cx="24.0556" cy="127.421" r="3.61111" fill="#EF3DFF"/>
<circle cx="24.0556" cy="77.8969" r="3.61111" fill="#EF3DFF"/>
<circle cx="24.0556" cy="176.944" r="3.61111" fill="#EF3DFF"/>
<circle cx="24.0556" cy="15.9921" r="3.61111" fill="#EF3DFF"/>
<circle cx="24.0556" cy="115.04" r="3.61111" fill="#EF3DFF"/>
<circle cx="24.0556" cy="65.5159" r="3.61111" fill="#EF3DFF"/>
<circle cx="24.0556" cy="164.564" r="3.61111" fill="#EF3DFF"/>
<circle cx="24.0556" cy="40.7539" r="3.61111" fill="#EF3DFF"/>
<circle cx="24.0556" cy="139.802" r="3.61111" fill="#EF3DFF"/>
<circle cx="24.0556" cy="90.2778" r="3.61111" fill="#EF3DFF"/>
<circle cx="24.0556" cy="189.325" r="3.61111" fill="#EF3DFF"/>
<circle cx="24.0556" cy="139.389" r="3.61111" fill="#EF3DFF"/>
<circle cx="24.0556" cy="238.437" r="3.61111" fill="#EF3DFF"/>
<circle cx="24.0556" cy="188.913" r="3.61111" fill="#EF3DFF"/>
<circle cx="24.0556" cy="287.96" r="3.61111" fill="#EF3DFF"/>
<circle cx="24.0556" cy="164.151" r="3.61111" fill="#EF3DFF"/>
<circle cx="24.0556" cy="263.198" r="3.61111" fill="#EF3DFF"/>
<circle cx="24.0556" cy="213.675" r="3.61111" fill="#EF3DFF"/>
<circle cx="24.0556" cy="312.722" r="3.61111" fill="#EF3DFF"/>
<circle cx="24.0556" cy="151.77" r="3.61111" fill="#EF3DFF"/>
<circle cx="24.0556" cy="250.817" r="3.61111" fill="#EF3DFF"/>
<circle cx="24.0556" cy="201.294" r="3.61111" fill="#EF3DFF"/>
<circle cx="24.0556" cy="300.341" r="3.61111" fill="#EF3DFF"/>
<circle cx="24.0556" cy="176.532" r="3.61111" fill="#EF3DFF"/>
<circle cx="24.0556" cy="275.579" r="3.61111" fill="#EF3DFF"/>
<circle cx="24.0556" cy="226.056" r="3.61111" fill="#EF3DFF"/>
<circle cx="24.0556" cy="325.103" r="3.61111" fill="#EF3DFF"/>
<circle cx="34.1667" cy="3.61111" r="3.61111" fill="#EF3DFF"/>
<circle cx="34.1667" cy="102.659" r="3.61111" fill="#EF3DFF"/>
<circle cx="34.1667" cy="53.135" r="3.61111" fill="#EF3DFF"/>
<circle cx="34.1667" cy="152.183" r="3.61111" fill="#EF3DFF"/>
<circle cx="34.1667" cy="28.373" r="3.61111" fill="#EF3DFF"/>
<circle cx="34.1667" cy="127.421" r="3.61111" fill="#EF3DFF"/>
<circle cx="34.1667" cy="77.8968" r="3.61111" fill="#EF3DFF"/>
<circle cx="34.1667" cy="176.944" r="3.61111" fill="#EF3DFF"/>
<circle cx="34.1667" cy="15.992" r="3.61111" fill="#EF3DFF"/>
<circle cx="34.1667" cy="115.04" r="3.61111" fill="#EF3DFF"/>
<circle cx="34.1667" cy="65.5159" r="3.61111" fill="#EF3DFF"/>
<circle cx="34.1667" cy="164.564" r="3.61111" fill="#EF3DFF"/>
<circle cx="34.1667" cy="40.7539" r="3.61111" fill="#EF3DFF"/>
<circle cx="34.1667" cy="139.802" r="3.61111" fill="#EF3DFF"/>
<circle cx="34.1667" cy="90.2778" r="3.61111" fill="#EF3DFF"/>
<circle cx="34.1667" cy="189.325" r="3.61111" fill="#EF3DFF"/>
<circle cx="34.1667" cy="139.389" r="3.61111" fill="#EF3DFF"/>
<circle cx="34.1667" cy="238.437" r="3.61111" fill="#EF3DFF"/>
<circle cx="34.1667" cy="188.913" r="3.61111" fill="#EF3DFF"/>
<circle cx="34.1667" cy="287.96" r="3.61111" fill="#EF3DFF"/>
<circle cx="34.1667" cy="164.151" r="3.61111" fill="#EF3DFF"/>
<circle cx="34.1667" cy="263.198" r="3.61111" fill="#EF3DFF"/>
<circle cx="34.1667" cy="213.675" r="3.61111" fill="#EF3DFF"/>
<circle cx="34.1667" cy="312.722" r="3.61111" fill="#EF3DFF"/>
<circle cx="34.1667" cy="151.77" r="3.61111" fill="#EF3DFF"/>
<circle cx="34.1667" cy="250.817" r="3.61111" fill="#EF3DFF"/>
<circle cx="34.1667" cy="201.294" r="3.61111" fill="#EF3DFF"/>
<circle cx="34.1667" cy="300.341" r="3.61111" fill="#EF3DFF"/>
<circle cx="34.1667" cy="176.532" r="3.61111" fill="#EF3DFF"/>
<circle cx="34.1667" cy="275.579" r="3.61111" fill="#EF3DFF"/>
<circle cx="34.1667" cy="226.056" r="3.61111" fill="#EF3DFF"/>
<circle cx="34.1667" cy="325.103" r="3.61111" fill="#EF3DFF"/>
<circle cx="44.2778" cy="3.61111" r="3.61111" fill="#EF3DFF"/>
<circle cx="44.2778" cy="102.659" r="3.61111" fill="#EF3DFF"/>
<circle cx="44.2778" cy="53.135" r="3.61111" fill="#EF3DFF"/>
<circle cx="44.2778" cy="152.183" r="3.61111" fill="#EF3DFF"/>
<circle cx="44.2778" cy="28.373" r="3.61111" fill="#EF3DFF"/>
<circle cx="44.2778" cy="127.421" r="3.61111" fill="#EF3DFF"/>
<circle cx="44.2778" cy="77.8968" r="3.61111" fill="#EF3DFF"/>
<circle cx="44.2778" cy="176.944" r="3.61111" fill="#EF3DFF"/>
<circle cx="44.2778" cy="15.992" r="3.61111" fill="#EF3DFF"/>
<circle cx="44.2778" cy="115.04" r="3.61111" fill="#EF3DFF"/>
<circle cx="44.2778" cy="65.5159" r="3.61111" fill="#EF3DFF"/>
<circle cx="44.2778" cy="164.564" r="3.61111" fill="#EF3DFF"/>
<circle cx="44.2778" cy="40.7539" r="3.61111" fill="#EF3DFF"/>
<circle cx="44.2778" cy="139.802" r="3.61111" fill="#EF3DFF"/>
<circle cx="44.2778" cy="90.2778" r="3.61111" fill="#EF3DFF"/>
<circle cx="44.2778" cy="189.325" r="3.61111" fill="#EF3DFF"/>
<circle cx="44.2778" cy="139.389" r="3.61111" fill="#EF3DFF"/>
<circle cx="44.2778" cy="238.437" r="3.61111" fill="#EF3DFF"/>
<circle cx="44.2778" cy="188.913" r="3.61111" fill="#EF3DFF"/>
<circle cx="44.2778" cy="287.96" r="3.61111" fill="#EF3DFF"/>
<circle cx="44.2778" cy="164.151" r="3.61111" fill="#EF3DFF"/>
<circle cx="44.2778" cy="263.198" r="3.61111" fill="#EF3DFF"/>
<circle cx="44.2778" cy="213.675" r="3.61111" fill="#EF3DFF"/>
<circle cx="44.2778" cy="312.722" r="3.61111" fill="#EF3DFF"/>
<circle cx="44.2778" cy="151.77" r="3.61111" fill="#EF3DFF"/>
<circle cx="44.2778" cy="250.817" r="3.61111" fill="#EF3DFF"/>
<circle cx="44.2778" cy="201.294" r="3.61111" fill="#EF3DFF"/>
<circle cx="44.2778" cy="300.341" r="3.61111" fill="#EF3DFF"/>
<circle cx="44.2778" cy="176.532" r="3.61111" fill="#EF3DFF"/>
<circle cx="44.2778" cy="275.579" r="3.61111" fill="#EF3DFF"/>
<circle cx="44.2778" cy="226.056" r="3.61111" fill="#EF3DFF"/>
<circle cx="44.2778" cy="325.103" r="3.61111" fill="#EF3DFF"/>
<circle cx="54.3889" cy="3.61111" r="3.61111" fill="#EF3DFF"/>
<circle cx="54.3889" cy="102.659" r="3.61111" fill="#EF3DFF"/>
<circle cx="54.3889" cy="53.135" r="3.61111" fill="#EF3DFF"/>
<circle cx="54.3889" cy="152.183" r="3.61111" fill="#EF3DFF"/>
<circle cx="54.3889" cy="28.373" r="3.61111" fill="#EF3DFF"/>
<circle cx="54.3889" cy="127.421" r="3.61111" fill="#EF3DFF"/>
<circle cx="54.3889" cy="77.8968" r="3.61111" fill="#EF3DFF"/>
<circle cx="54.3889" cy="176.944" r="3.61111" fill="#EF3DFF"/>
<circle cx="54.3889" cy="15.992" r="3.61111" fill="#EF3DFF"/>
<circle cx="54.3889" cy="115.04" r="3.61111" fill="#EF3DFF"/>
<circle cx="54.3889" cy="65.5159" r="3.61111" fill="#EF3DFF"/>
<circle cx="54.3889" cy="164.564" r="3.61111" fill="#EF3DFF"/>
<circle cx="54.3889" cy="40.7539" r="3.61111" fill="#EF3DFF"/>
<circle cx="54.3889" cy="139.802" r="3.61111" fill="#EF3DFF"/>
<circle cx="54.3889" cy="90.2778" r="3.61111" fill="#EF3DFF"/>
<circle cx="54.3889" cy="189.325" r="3.61111" fill="#EF3DFF"/>
<circle cx="54.3889" cy="139.389" r="3.61111" fill="#EF3DFF"/>
<circle cx="54.3889" cy="238.437" r="3.61111" fill="#EF3DFF"/>
<circle cx="54.3889" cy="188.913" r="3.61111" fill="#EF3DFF"/>
<circle cx="54.3889" cy="287.96" r="3.61111" fill="#EF3DFF"/>
<circle cx="54.3889" cy="164.151" r="3.61111" fill="#EF3DFF"/>
<circle cx="54.3889" cy="263.198" r="3.61111" fill="#EF3DFF"/>
<circle cx="54.3889" cy="213.675" r="3.61111" fill="#EF3DFF"/>
<circle cx="54.3889" cy="312.722" r="3.61111" fill="#EF3DFF"/>
<circle cx="54.3889" cy="151.77" r="3.61111" fill="#EF3DFF"/>
<circle cx="54.3889" cy="250.817" r="3.61111" fill="#EF3DFF"/>
<circle cx="54.3889" cy="201.294" r="3.61111" fill="#EF3DFF"/>
<circle cx="54.3889" cy="300.341" r="3.61111" fill="#EF3DFF"/>
<circle cx="54.3889" cy="176.532" r="3.61111" fill="#EF3DFF"/>
<circle cx="54.3889" cy="275.579" r="3.61111" fill="#EF3DFF"/>
<circle cx="54.3889" cy="226.056" r="3.61111" fill="#EF3DFF"/>
<circle cx="54.3889" cy="325.103" r="3.61111" fill="#EF3DFF"/>
</g>
</svg>
