<svg width="15" height="14" viewBox="0 0 15 14" fill="none" xmlns="http://www.w3.org/2000/svg">
<g clip-path="url(#clip0_1_46)">
<path fill-rule="evenodd" clip-rule="evenodd" d="M12.8771 -0.000488281H1.87864C1.18066 -0.000488281 0.609314 0.57084 0.609314 1.26884V12.2673C0.609314 12.9653 1.18066 13.5366 1.87864 13.5366H12.8771C13.5751 13.5366 14.1464 12.9653 14.1464 12.2673V1.26882C14.1464 0.57084 13.5751 -0.000488281 12.8771 -0.000488281ZM8.30469 3.67558H9.85182V1.82018H8.30469C7.1133 1.82018 6.14127 2.79196 6.14127 3.98485V4.91217H4.90418V6.76806H6.14102V11.7159H7.99667V6.76806H9.54228L9.8518 4.91217H7.99665V3.98485C7.99665 3.81696 8.13832 3.67533 8.30469 3.67533V3.67556V3.67558Z" fill="white"/>
</g>
<defs>
<clipPath id="clip0_1_46">
<rect width="13.5366" height="13.5366" fill="white" transform="translate(0.609741)"/>
</clipPath>
</defs>
</svg>
