<svg width="55" height="51" viewBox="0 0 55 51" fill="none" xmlns="http://www.w3.org/2000/svg">
<path fill-rule="evenodd" clip-rule="evenodd" d="M27.2138 22.0226H25.0639V26.5902C25.0639 27.2449 24.4123 27.6895 23.8063 27.4672L15.8009 24.5013H15.3898V29.1907C15.3898 29.7053 14.9726 30.1255 14.4549 30.1255H11.3124C10.7948 30.1255 10.3776 29.7053 10.3776 29.1907V24.5013H9.79903C9.28441 24.5013 8.86419 24.0841 8.86419 23.5664V14.8606C8.86419 14.346 9.28441 13.9258 9.79903 13.9258H15.8009L23.8063 10.9599C24.4123 10.7376 25.0639 11.1882 25.0639 11.8368V16.4044H27.2138C27.7284 16.4044 28.1456 16.8247 28.1456 17.3393V21.0878C28.1456 21.6024 27.7284 22.0226 27.2138 22.0226ZM54.0652 39.483H35.7826V43.81H45.338C45.8557 43.81 46.2728 44.2303 46.2728 44.7449V49.7632C46.2728 50.2778 45.8557 50.6949 45.338 50.6949H9.662C9.14738 50.6949 8.72716 50.2778 8.72716 49.7632V44.7449C8.72716 44.2303 9.14738 43.81 9.662 43.81H19.2174V39.483H0.934836C0.417174 39.483 0 39.0658 0 38.5512V8.33502C0 7.8204 0.417174 7.40018 0.934836 7.40018H4.88733V1.24001C4.88733 0.72235 5.30451 0.305176 5.81912 0.305176H49.1809C49.6955 0.305176 50.1157 0.72235 50.1157 1.24001V7.40018H54.0652C54.5828 7.40018 55 7.8204 55 8.33502V38.5512C55 39.0658 54.5828 39.483 54.0652 39.483ZM4.88733 9.26985H1.86663V37.6164H53.1334V9.26985H50.1157V33.6639C50.1157 34.1815 49.6955 34.5987 49.1809 34.5987H5.81912C5.30451 34.5987 4.88733 34.1815 4.88733 33.6639V9.26985ZM10.5968 45.6797V48.8283H44.4032V45.6797C33.1364 45.6797 21.8666 45.6797 10.5968 45.6797ZM33.916 43.81V39.483H21.0871V43.81H33.916ZM6.75396 32.729H48.246V8.29543H6.75396V32.729ZM6.75396 6.42881H48.246V2.1718H6.75396V6.42881ZM11.62 5.23514H9.1352C8.61754 5.23514 8.20037 4.81797 8.20037 4.3003C8.20037 3.78569 8.61754 3.36547 9.1352 3.36547H11.62C12.1346 3.36547 12.5548 3.78569 12.5548 4.3003C12.5548 4.81797 12.1346 5.23514 11.62 5.23514ZM17.3112 5.23514H14.8264C14.3118 5.23514 13.8916 4.81797 13.8916 4.3003C13.8916 3.78569 14.3118 3.36547 14.8264 3.36547H17.3112C17.8289 3.36547 18.246 3.78569 18.246 4.3003C18.246 4.81797 17.8289 5.23514 17.3112 5.23514ZM37.7832 28.8679C33.176 28.8679 29.4306 25.1194 29.4306 20.5122C29.4306 15.9081 33.176 12.1596 37.7832 12.1596C42.3873 12.1596 46.1358 15.9081 46.1358 20.5122C46.1358 25.1194 42.3873 28.8679 37.7832 28.8679ZM37.7832 14.0293C34.2052 14.0293 31.2972 16.9373 31.2972 20.5122C31.2972 24.0902 34.2052 26.9982 37.7832 26.9982C41.3581 26.9982 44.2661 24.0902 44.2661 20.5122C44.2661 16.9373 41.3581 14.0293 37.7832 14.0293ZM37.7832 25.7406C37.2655 25.7406 36.8484 25.3234 36.8484 24.8058V24.7236H36.1449C35.6273 24.7236 35.2101 24.3033 35.2101 23.7887C35.2101 23.2741 35.6273 22.8539 36.1449 22.8539H38.4866V21.4471H36.1449C35.6273 21.4471 35.2101 21.0299 35.2101 20.5122V17.2388C35.2101 16.7211 35.6273 16.304 36.1449 16.304H36.8484V16.2217C36.8484 15.7041 37.2655 15.2869 37.7832 15.2869C38.2978 15.2869 38.715 15.7041 38.715 16.2217V16.304H39.4184C39.9361 16.304 40.3532 16.7211 40.3532 17.2388C40.3532 17.7534 39.9361 18.1736 39.4184 18.1736H37.0798V19.5805H39.4184C39.9361 19.5805 40.3532 19.9976 40.3532 20.5122V23.7887C40.3532 24.3033 39.9361 24.7236 39.4184 24.7236H38.715V24.8058C38.715 25.3234 38.2978 25.7406 37.7832 25.7406ZM15.0335 22.6316V15.7954H10.7339V22.6316H15.0335ZM23.1943 13.1797L16.9001 15.5092V22.9178L23.1943 25.2473C23.1943 21.2248 23.1943 17.2023 23.1943 13.1797ZM25.0639 18.2741V20.1529H26.2789V18.2741H25.0639ZM12.2442 28.2558H13.5201V24.5013H12.2442V28.2558Z" fill="url(#paint0_linear_1_716)"/>
<defs>
<linearGradient id="paint0_linear_1_716" x1="27.5" y1="0.305176" x2="27.5" y2="50.6949" gradientUnits="userSpaceOnUse">
<stop stop-color="#FCB64D"/>
<stop offset="1" stop-color="#F78C1E"/>
</linearGradient>
</defs>
</svg>
