<svg width="14" height="14" viewBox="0 0 14 14" fill="none" xmlns="http://www.w3.org/2000/svg">
<g clip-path="url(#clip0_1_52)">
<path fill-rule="evenodd" clip-rule="evenodd" d="M12.2675 0H1.26906C0.571075 0 0 0.571075 0 1.26905V12.2675C0 12.9655 0.571075 13.5366 1.26906 13.5366H12.2675C12.9655 13.5366 13.5366 12.9655 13.5366 12.2675V1.26905C13.5366 0.571075 12.9655 0 12.2675 0ZM5.07603 10.9985H3.38427V5.07605H5.07603V10.9985V10.9985ZM4.22991 4.22991C3.76226 4.22991 3.38402 3.85169 3.38402 3.38402C3.38402 2.91612 3.76224 2.5379 4.22991 2.5379C4.69781 2.5379 5.07603 2.91612 5.07603 3.38402C5.07603 3.85167 4.69781 4.22991 4.22991 4.22991ZM10.9985 10.9985H9.30668V7.61443C9.30668 7.14653 8.92823 6.76831 8.46056 6.76831C7.99266 6.76831 7.61444 7.14653 7.61444 7.61443V10.9985H5.92215V5.07605H7.61444V6.12602C7.96292 5.64687 8.49753 5.07605 9.09485 5.07605C10.1473 5.07605 10.9984 6.02285 10.9984 7.19125V10.9985H10.9985Z" fill="white"/>
</g>
<defs>
<clipPath id="clip0_1_52">
<rect width="13.5366" height="13.5366" fill="white"/>
</clipPath>
</defs>
</svg>
