<svg width="284" height="45" viewBox="0 0 284 45" fill="none" xmlns="http://www.w3.org/2000/svg">
<g filter="url(#filter0_d_1_750)">
<path d="M45.9026 35.2202C45.7179 35.2202 45.5692 35.0689 45.5692 34.8838V5.82299C45.5692 5.79816 45.5692 5.77558 45.5692 5.75074C45.5669 3.2084 47.3784 1.02958 49.877 0.589295C50.812 0.424472 51.8034 0.225785 52.8217 0.00677327C52.8443 0.00225757 52.869 0 52.8916 0H53.6148C53.8041 0 53.9573 0.158051 53.9483 0.347711C53.8266 3.62611 53.7815 6.9045 53.777 11.2667C53.777 11.5376 54.0789 11.6979 54.3042 11.5466C55.976 10.4358 57.846 9.98421 59.68 9.98421C65.1685 9.98421 69.643 14.2357 69.643 21.9102C69.643 30.6458 64.3844 35.5002 57.7424 35.5002C56.0166 35.5002 54.2907 35.1863 52.4342 34.5586C52.3756 34.5383 52.3125 34.5315 52.254 34.5406C50.7647 34.7167 50.1902 34.8138 48.23 35.2157C48.2075 35.2202 48.1849 35.2224 48.1624 35.2224C47.9326 35.2202 46.5515 35.2202 45.9026 35.2202ZM53.7793 29.3046C53.7793 29.4423 53.8649 29.571 53.9933 29.6185C54.7053 29.8826 55.4105 29.9978 56.0391 29.9978C59.1753 29.9978 60.7908 26.2068 60.7908 22.6485C60.7908 19.3656 59.4525 16.2701 56.7781 16.2701C55.798 16.2701 54.7774 16.7013 53.8784 17.6022C53.8153 17.6654 53.7815 17.7512 53.7815 17.8415L53.7793 29.3046Z" fill="white"/>
<path d="M73.6129 20.1513C73.6129 18.8779 73.5949 17.828 73.5656 16.9293C73.4665 14.0054 75.4739 11.4382 78.3263 10.8151C78.8828 10.6932 79.4528 10.5622 80.0251 10.42C80.4644 10.3116 80.9151 10.2597 81.3679 10.2597H81.5797C81.7645 10.2597 81.9154 10.4109 81.9154 10.5961V15.0666C83.1613 12.0614 84.7745 9.98193 87.681 9.98193C87.8838 9.98193 88.082 9.99097 88.2735 10.0045C89.7087 10.1174 90.6573 11.5534 90.2427 12.9352C89.9994 13.7435 89.8484 14.4434 89.7493 15.0485C89.5217 16.4529 88.3163 17.4803 86.8969 17.4712C86.8811 17.4712 86.8654 17.4712 86.8518 17.4712C84.6574 17.4712 83.0509 18.1079 81.9447 20.6412C81.9267 20.6841 81.9154 20.7315 81.9154 20.779V29.6749C81.9154 30.1761 81.9199 30.6661 81.9289 31.1402C81.9672 33.3642 80.2166 35.2089 77.9996 35.2721C77.9478 35.2744 77.896 35.2743 77.8464 35.2766C75.4694 35.3466 73.5183 33.4049 73.5859 31.0228C73.6039 30.4109 73.6152 29.8713 73.6152 29.4875V20.1513H73.6129Z" fill="white"/>
<path d="M104.081 20.5103C104.25 20.49 104.378 20.3477 104.378 20.1784V19.413C104.378 17.4712 104.286 15.7146 101.886 15.7146C100.219 15.7146 99.4239 17.1438 99.6109 18.5663C99.6357 18.7492 99.5028 18.914 99.318 18.9253C97.876 19.0133 94.7826 19.1601 92.8608 19.632C92.658 19.6817 92.4597 19.5394 92.4417 19.3317C92.4101 18.9614 92.3854 18.5956 92.3854 18.2569C92.3854 10.4448 98.8426 9.98193 102.396 9.98193C106.685 9.98193 112.498 11.646 112.498 19.0427V26.4394C112.498 28.7966 113.005 29.86 114.481 29.86C114.673 29.86 114.83 30.0226 114.815 30.2145C114.745 31.1741 114.857 32.1856 115.011 33.1023C115.024 33.1881 115.006 33.2762 114.952 33.3461C113.875 34.755 111.989 35.5024 110.189 35.5024C108.2 35.5024 106.088 35.096 105.034 32.7207C104.935 32.4995 104.64 32.4588 104.477 32.6394C103.076 34.1793 100.942 35.5024 98.1487 35.5024C94.0887 35.5024 91.4594 33.2378 91.4594 29.124C91.4639 26.3265 93.6358 21.7634 104.081 20.5103ZM104.378 24.7505C104.378 24.5428 104.194 24.3847 103.991 24.4186C102.008 24.746 99.2121 25.5972 99.2121 27.5028C99.2121 29.0291 100.366 29.5823 101.749 29.5823C102.594 29.5823 103.441 29.3881 104.18 29.0698C104.302 29.0179 104.378 28.8959 104.378 28.7627V24.7505Z" fill="white"/>
<path d="M118.183 35.2202C117.998 35.2202 117.847 35.0689 117.847 34.8838V5.82299C117.847 5.80041 117.847 5.77558 117.847 5.753C117.845 3.21066 119.656 1.03183 122.157 0.589295C123.092 0.424472 124.084 0.225785 125.102 0.00677327C125.124 0.00225757 125.149 0 125.172 0H125.895C126.084 0 126.237 0.158051 126.228 0.347711C126.107 3.62611 126.062 6.9045 126.057 11.2667C126.057 11.5376 126.359 11.6979 126.584 11.5466C128.256 10.4358 130.126 9.98421 131.96 9.98421C137.449 9.98421 141.923 14.2357 141.923 21.9102C141.923 30.6458 136.665 35.5002 130.023 35.5002C128.297 35.5002 126.571 35.1863 124.714 34.5586C124.656 34.5383 124.593 34.5315 124.532 34.5406C123.043 34.7167 122.47 34.8138 120.508 35.2157C120.485 35.2202 120.463 35.2224 120.44 35.2224L118.183 35.2202ZM126.057 29.3046C126.057 29.4423 126.143 29.571 126.271 29.6185C126.983 29.8826 127.688 29.9978 128.317 29.9978C131.453 29.9978 133.069 26.2068 133.069 22.6485C133.069 19.3656 131.73 16.2701 129.056 16.2701C128.076 16.2701 127.055 16.7013 126.154 17.6022C126.091 17.6654 126.057 17.7512 126.057 17.8415V29.3046Z" fill="white"/>
<path d="M155.692 35.4979C146.79 35.4979 143.514 29.212 143.514 22.6936C143.514 16.1301 147.941 9.98193 155.692 9.98193C164.593 9.98193 167.869 16.1301 167.869 22.6485C167.869 29.212 163.44 35.4979 155.692 35.4979ZM155.647 15.7598C152.278 15.7598 151.679 19.273 151.679 22.5085C151.679 27.548 153.294 29.2572 155.599 29.2572C157.904 29.2572 159.612 27.548 159.612 22.5085C159.612 19.273 159.013 15.7598 155.647 15.7598Z" fill="white"/>
<path d="M178.008 29.6275C179.946 29.6275 181.514 29.072 181.514 27.4554C181.514 26.4845 180.915 25.9765 178.193 25.4685C172.198 24.3125 169.199 22.1856 169.199 17.3786C169.199 12.8946 172.657 9.98193 179.439 9.98193C181.575 9.98193 183.979 10.4358 185.919 11.3005C186.86 11.7205 187.293 12.8178 186.919 13.7819C186.543 14.7528 186.308 15.6469 186.151 16.5365C186.135 16.6313 186.079 16.7126 185.997 16.7645C185.72 16.9339 185.376 16.9519 185.087 16.8006C184.154 16.3084 182.496 15.7146 180.313 15.7146C178.515 15.7146 176.947 16.1775 176.947 17.6089C176.947 18.4421 177.868 18.9027 180.453 19.4581C186.403 20.7519 188.201 23.6193 188.201 27.6857C188.201 30.8761 185.801 35.4979 178.653 35.4979C176.125 35.4979 172.772 34.8928 170.359 33.5764C169.591 33.1565 169.264 32.2127 169.609 31.4089C169.791 30.9867 169.949 30.5645 170.089 30.1061C170.42 29.0201 171.569 28.406 172.65 28.7401C174.171 29.212 176.239 29.6275 178.008 29.6275Z" fill="white"/>
<path d="M206.451 25.7958C206.451 27.8166 206.84 29.8057 206.874 30.0338C206.419 30.0338 205.93 30.0338 205.475 30.0993C205.444 30.0022 205.313 29.3497 205.214 28.372C203.718 29.6432 202.123 30.2302 200.561 30.2302C196.69 30.2302 193.243 26.9383 193.243 21.4607C193.243 15.789 196.79 12.3977 200.791 12.3977C202.222 12.3977 203.686 12.7229 205.117 13.7344V7.08502C205.117 6.59507 205.085 6.13898 205.052 5.65128C205.637 5.5542 205.996 5.32615 206.189 5.22681H206.451V25.7958ZM205.117 14.8746C203.815 13.9624 202.418 13.635 201.084 13.635C197.637 13.635 194.577 16.3738 194.577 21.393C194.577 26.0216 197.245 28.9568 200.757 28.9568C202.222 28.9568 203.977 28.4352 205.117 27.3266V14.8746Z" fill="white"/>
<path d="M212.142 6.88867C212.793 6.88867 213.345 7.44184 213.345 8.09436C213.345 8.74688 212.793 9.30005 212.142 9.30005C211.491 9.30005 210.939 8.74688 210.939 8.09436C210.939 7.44184 211.493 6.88867 212.142 6.88867ZM211.493 16.9925C211.493 16.112 211.396 13.2445 211.396 13.0165C211.982 12.9194 212.241 12.7568 212.534 12.592H212.795V26.9361C212.795 28.9569 212.827 29.7403 212.861 30.0339C212.406 30.0339 211.917 30.0339 211.461 30.0993L211.493 16.9925Z" fill="white"/>
<path d="M218.518 28.5978C217.412 27.9792 216.86 27.0986 216.86 26.2835C216.86 25.1433 217.738 23.9354 218.876 23.0887C217.608 22.0139 216.957 20.3183 216.957 18.5572C216.957 15.1998 218.779 12.3955 222.423 12.3955C223.432 12.3955 224.308 12.6235 225.025 13.0142L230.067 12.7545C230.036 13.1135 230.036 13.2761 230.036 13.4725V13.897L229.939 13.9625H226.23C227.271 15.1365 227.792 16.6674 227.792 18.591C227.792 21.6233 226.003 24.2966 222.326 24.2966C221.253 24.2966 220.341 24.0347 219.593 23.6125C218.714 24.2311 218.162 25.1456 218.162 25.9268C218.162 26.9383 218.944 27.7195 220.505 27.7195H225.189C228.929 27.7195 230.297 29.4468 230.297 31.664C230.297 34.9243 226.557 36.9451 222.783 36.9451C218.685 36.9451 215.79 34.8272 215.79 32.3481C215.785 30.4244 217.119 29.3474 218.518 28.5978ZM225.153 28.8913H219.687C218.191 29.6093 217.02 30.587 217.02 32.2172C217.02 34.1725 219.394 35.7055 222.907 35.7055C226.289 35.7055 228.99 33.9444 228.99 31.8265C228.992 30.228 228.114 28.8913 225.153 28.8913ZM222.357 13.6351C219.559 13.6351 218.194 15.8839 218.194 18.4262C218.194 20.7089 219.82 23.1203 222.389 23.1203C225.187 23.1203 226.552 20.9686 226.552 18.3607C226.552 15.8207 225.122 13.6351 222.357 13.6351Z" fill="white"/>
<path d="M233.773 6.88867C234.425 6.88867 234.977 7.44184 234.977 8.09436C234.977 8.74688 234.422 9.30005 233.773 9.30005C233.122 9.30005 232.57 8.74688 232.57 8.09436C232.57 7.44184 233.125 6.88867 233.773 6.88867ZM233.125 16.9925C233.125 16.112 233.028 13.2445 233.028 13.0165C233.614 12.9194 233.873 12.7568 234.166 12.592H234.425V26.9361C234.425 28.9569 234.456 29.7403 234.49 30.0339C234.035 30.0339 233.546 30.0339 233.091 30.0993L233.125 16.9925Z" fill="white"/>
<path d="M240.832 12.592H245.94C245.908 12.82 245.875 13.082 245.843 13.8316H240.835L240.866 26.0555C240.866 28.5008 241.842 28.9569 243.272 28.9569C244.183 28.9569 245.061 28.6634 246.102 27.8483C246.264 28.4037 246.46 28.695 246.591 28.8598C245.582 29.772 244.248 30.2281 243.175 30.2281C240.735 30.2281 239.501 28.8259 239.501 26.0239V13.8316L237.158 13.7661C237.223 13.4726 237.223 13.31 237.223 12.951L239.501 12.592C239.501 12.233 239.469 9.9187 239.404 9.1691C239.99 9.07201 240.379 8.84397 240.575 8.74463H240.835V12.592H240.832Z" fill="white"/>
<path d="M257.814 19.9276V17.6133C257.814 14.6465 256.252 13.6372 254.008 13.6372C250.561 13.6372 249.975 15.8205 249.975 17.3536C249.585 17.3852 249.031 17.4191 248.576 17.5162V17.4191C248.608 14.5494 250.268 12.3999 254.042 12.3999C257.196 12.3999 259.15 14.1926 259.15 17.6494V26.0915C259.15 27.5591 259.605 29.0899 260.873 29.0899C261.524 29.0899 262.011 28.6 262.272 28.3403C262.403 28.7309 262.531 28.9273 262.696 29.2525C262.013 30.0676 261.166 30.2301 260.517 30.2301C258.956 30.2301 258.111 28.8935 257.883 26.7418C256.973 28.3381 254.826 30.2301 252.125 30.2301C249.588 30.2301 248.026 28.5029 248.026 26.1547C248.022 23.3821 250.755 20.7743 257.814 19.9276ZM257.814 20.9052C254.984 21.3952 249.421 22.4044 249.421 26.1863C249.421 28.11 250.82 28.9567 252.544 28.9567C255.081 28.9567 256.676 26.9359 257.814 25.4683V20.9052Z" fill="white"/>
<path d="M265.49 6.88867C266.141 6.88867 266.693 7.44184 266.693 8.09436C266.693 8.74688 266.141 9.30005 265.49 9.30005C264.839 9.30005 264.287 8.74688 264.287 8.09436C264.287 7.44184 264.841 6.88867 265.49 6.88867ZM264.841 16.9925C264.841 16.112 264.744 13.2445 264.744 13.0165C265.33 12.9194 265.589 12.7568 265.882 12.592H266.143V26.9361C266.143 28.9569 266.175 29.7403 266.208 30.0339C265.753 30.0339 265.264 30.0339 264.809 30.0993L264.841 16.9925Z" fill="white"/>
<path d="M273.851 28.9906C276.063 28.9906 278.242 27.9475 278.242 25.4052C278.242 23.057 276.55 22.6009 273.851 21.3952C271.834 20.5485 269.818 19.6341 269.818 16.9608C269.818 13.635 272.323 12.3977 274.957 12.3977C276.422 12.3977 277.884 12.7228 279.055 13.2783C278.794 13.6034 278.666 13.9624 278.566 14.353L278.436 14.4185C277.622 14.0279 276.192 13.6689 274.858 13.6689C272.907 13.6689 271.084 14.4185 271.084 16.7982C271.084 18.7219 272.614 19.668 274.889 20.4808C277.882 21.621 279.508 22.6325 279.508 25.272C279.508 28.6632 276.775 30.2279 273.849 30.2279C272.384 30.2279 270.856 29.8373 269.62 29.0538C269.847 28.7603 270.009 28.3697 270.14 27.9136C271.052 28.5978 272.452 28.9906 273.851 28.9906Z" fill="white"/>
<path d="M23.6649 34.5517C23.336 34.5517 23.007 34.5517 22.6759 34.5517C22.6195 34.545 22.5632 34.5337 22.5069 34.5314C20.6842 34.4682 18.9087 34.1363 17.1942 33.5131C14.5874 32.5671 12.3591 31.0634 10.5454 28.9568C8.9187 27.067 7.81696 24.8927 7.12077 22.5039C7.00586 22.1065 7.00811 22.102 6.61834 21.9507C6.32994 21.8378 6.03254 21.743 5.7464 21.6256C5.45801 21.5082 5.25749 21.2914 5.13357 21.0024C4.98487 20.6547 4.93756 20.2844 4.93305 19.9119C4.92855 19.379 4.94432 18.8462 4.94882 18.311C4.95784 17.4711 4.95784 16.6289 4.98037 15.789C4.99163 15.3962 5.03895 15.001 5.09302 14.6104C5.13583 14.3124 5.32283 14.116 5.61122 14.0211C5.67656 13.9986 5.7419 13.9782 5.80724 13.9534C6.16322 13.8157 6.5192 13.6757 6.87744 13.5402C6.97207 13.5041 7.01713 13.4409 7.04642 13.3438C7.49477 11.8378 8.09634 10.3973 8.89843 9.04483C10.7189 5.96965 13.2513 3.70051 16.5498 2.31419C19.2309 1.18752 22.027 0.80595 24.9176 1.07463C26.9341 1.26204 28.865 1.77005 30.7035 2.62125C32.8506 3.61471 34.7027 4.99426 36.2077 6.83215C36.8904 7.66755 37.4379 8.58875 37.9516 9.53479C38.3233 10.2189 38.6906 10.903 38.9406 11.6459C39.1479 12.26 39.389 12.8606 39.6143 13.468C39.6413 13.5402 39.6842 13.5763 39.7563 13.5989C40.2812 13.7683 40.8039 13.9421 41.3289 14.1092C41.41 14.1363 41.4483 14.1747 41.4573 14.2582C41.5181 14.8927 41.5857 15.5249 41.6421 16.1593C41.6691 16.4596 41.6714 16.7644 41.6871 17.067C41.6871 17.5118 41.6871 17.9566 41.6871 18.4036C41.6804 18.521 41.6691 18.6407 41.6646 18.7581C41.6376 19.58 41.5947 20.3996 41.4551 21.2101C41.428 21.3659 41.3672 21.4675 41.2185 21.5398C40.9346 21.6775 40.6485 21.8017 40.3375 21.8649C40.128 21.9055 39.9185 21.9575 39.7067 21.9913C39.6143 22.0071 39.5828 22.0478 39.5625 22.1336C38.6275 26.1367 36.4645 29.3022 33.0602 31.594C30.4354 33.3619 27.5177 34.2853 24.3724 34.5043C24.1381 34.5224 23.9015 34.5359 23.6649 34.5517ZM23.0048 7.50724C22.5407 7.53433 22.0315 7.55466 21.5245 7.59981C20.2561 7.71496 19.0214 7.99493 17.8295 8.44425C14.4702 9.70413 11.8995 11.9462 9.95961 14.922C8.81506 16.6764 8.56723 18.6384 8.89843 20.6863C9.13049 22.1268 9.64869 23.468 10.3854 24.7233C11.9716 27.4215 14.1841 29.4468 16.9734 30.8421C18.6722 31.6933 20.4701 32.19 22.3672 32.3142C23.4532 32.3842 24.5346 32.33 25.6093 32.1629C27.6326 31.8491 29.5139 31.1537 31.2217 30.0202C34.3917 27.9159 36.406 24.9807 37.3883 21.3162C37.573 20.6299 37.7172 19.9344 37.7555 19.2232C37.8254 17.882 37.5235 16.6177 36.9467 15.4142C36.2415 13.9398 35.2344 12.6958 34.0042 11.6368C30.8567 8.92743 27.182 7.60659 23.0048 7.50724Z" fill="white"/>
</g>
<defs>
<filter id="filter0_d_1_750" x="0.932251" y="0" width="282.576" height="44.9451" filterUnits="userSpaceOnUse" color-interpolation-filters="sRGB">
<feFlood flood-opacity="0" result="BackgroundImageFix"/>
<feColorMatrix in="SourceAlpha" type="matrix" values="0 0 0 0 0 0 0 0 0 0 0 0 0 0 0 0 0 0 127 0" result="hardAlpha"/>
<feOffset dy="4"/>
<feGaussianBlur stdDeviation="2"/>
<feComposite in2="hardAlpha" operator="out"/>
<feColorMatrix type="matrix" values="0 0 0 0 0 0 0 0 0 0 0 0 0 0 0 0 0 0 0.25 0"/>
<feBlend mode="normal" in2="BackgroundImageFix" result="effect1_dropShadow_1_750"/>
<feBlend mode="normal" in="SourceGraphic" in2="effect1_dropShadow_1_750" result="shape"/>
</filter>
</defs>
</svg>
