<svg width="31" height="33" viewBox="0 0 31 33" fill="none" xmlns="http://www.w3.org/2000/svg">
<g clip-path="url(#clip0_1_59)">
<path d="M29.1367 14.1837C29.0099 14.1618 28.8815 14.1517 28.753 14.1534H6.88317L7.36005 13.9173C7.82618 13.6824 8.25024 13.3628 8.61324 12.9729L14.7461 6.44432C15.5538 5.62353 15.6895 4.30314 15.0677 3.31582C14.344 2.26372 12.9561 2.03528 11.9677 2.80567C11.8879 2.86794 11.812 2.93583 11.7407 3.00887L0.650495 14.8145C-0.216202 15.7361 -0.216964 17.2311 0.648762 18.1537C0.649316 18.1543 0.64994 18.155 0.650495 18.1555L11.7407 29.9612C12.6081 30.882 14.0124 30.8799 14.8774 29.9566C14.9455 29.8839 15.0091 29.8066 15.0677 29.7251C15.6895 28.7378 15.5538 27.4174 14.7461 26.5966L8.62433 20.0563C8.2989 19.7095 7.92474 19.4187 7.51531 19.1944L6.8499 18.8757H28.631C29.7641 18.9205 30.7582 18.0779 30.971 16.8923C31.1671 15.6051 30.3459 14.3925 29.1367 14.1837Z" fill="#3D5BFF"/>
</g>
<defs>
<clipPath id="clip0_1_59">
<rect width="31" height="33" fill="white"/>
</clipPath>
</defs>
</svg>
