<svg width="31" height="33" viewBox="0 0 31 33" fill="none" xmlns="http://www.w3.org/2000/svg">
<g clip-path="url(#clip0_1_67)">
<path d="M1.86327 18.8163C1.99011 18.8382 2.11848 18.8483 2.24692 18.8466L24.1168 18.8466L23.6399 19.0827C23.1738 19.3176 22.7497 19.6372 22.3867 20.0271L16.2539 26.5557C15.4462 27.3765 15.3104 28.6969 15.9323 29.6842C16.656 30.7363 18.0438 30.9647 19.0322 30.1943C19.1121 30.1321 19.188 30.0642 19.2593 29.9911L30.3495 18.1855C31.2162 17.2639 31.2169 15.7689 30.3512 14.8463C30.3507 14.8457 30.35 14.8451 30.3495 14.8445L19.2593 3.0388C18.3919 2.11803 16.9876 2.1201 16.1225 3.04345C16.0545 3.11613 15.9909 3.19345 15.9323 3.27491C15.3104 4.26223 15.4462 5.58262 16.2539 6.40341L22.3756 12.9437C22.7011 13.2905 23.0752 13.5813 23.4847 13.8056L24.1501 14.1243L2.36898 14.1243C1.23591 14.0795 0.241815 14.9221 0.0289529 16.1077C-0.167134 17.3949 0.654094 18.6075 1.86327 18.8163Z" fill="#3D5BFF"/>
</g>
<defs>
<clipPath id="clip0_1_67">
<rect width="31" height="33" fill="white" transform="translate(31 33) rotate(-180)"/>
</clipPath>
</defs>
</svg>
