<svg width="49" height="49" viewBox="0 0 49 49" fill="none" xmlns="http://www.w3.org/2000/svg">
<g clip-path="url(#clip0_1_703)">
<path d="M8.73854 6.62542C8.73854 5.29791 7.65889 4.21826 6.33138 4.21826C5.00387 4.21826 3.92384 5.29791 3.92384 6.62542C3.92384 7.95293 5.00387 9.03259 6.33138 9.03259C7.65852 9.03259 8.73854 7.95293 8.73854 6.62542ZM5.35939 6.62542C5.35939 6.08971 5.79567 5.65381 6.33138 5.65381C6.86709 5.65381 7.30299 6.08971 7.30299 6.62542C7.30299 7.16114 6.86709 7.59704 6.33138 7.59704C5.79567 7.59704 5.35939 7.16114 5.35939 6.62542Z" fill="url(#paint0_linear_1_703)"/>
<path d="M12.0504 9.03259C13.3779 9.03259 14.4579 7.95293 14.4579 6.62542C14.4579 5.29791 13.3779 4.21826 12.0504 4.21826C10.7229 4.21826 9.64323 5.29791 9.64323 6.62542C9.64323 7.95293 10.7229 9.03259 12.0504 9.03259ZM12.0504 5.65381C12.5865 5.65381 13.0224 6.08971 13.0224 6.62542C13.0224 7.16114 12.5861 7.59704 12.0504 7.59704C11.5147 7.59704 11.0788 7.16114 11.0788 6.62542C11.0788 6.08971 11.5147 5.65381 12.0504 5.65381Z" fill="url(#paint1_linear_1_703)"/>
<path d="M17.7698 9.03259C19.0969 9.03259 20.1769 7.95293 20.1769 6.62542C20.1769 5.29791 19.0969 4.21826 17.7698 4.21826C16.4423 4.21826 15.3622 5.29791 15.3622 6.62542C15.3622 7.95293 16.4423 9.03259 17.7698 9.03259ZM17.7698 5.65381C18.3055 5.65381 18.7414 6.08971 18.7414 6.62542C18.7414 7.16114 18.3055 7.59704 17.7698 7.59704C17.2337 7.59704 16.7978 7.16114 16.7978 6.62542C16.7978 6.08971 17.2337 5.65381 17.7698 5.65381Z" fill="url(#paint2_linear_1_703)"/>
<path d="M25.7124 7.34326H43.194C43.5906 7.34326 43.9117 7.02214 43.9117 6.62549C43.9117 6.22884 43.5906 5.90771 43.194 5.90771H25.7124C25.3158 5.90771 24.9946 6.22884 24.9946 6.62549C24.9946 7.02214 25.3158 7.34326 25.7124 7.34326Z" fill="url(#paint3_linear_1_703)"/>
<path d="M45.9073 1.62695H2.90138C1.249 1.62695 -0.0957031 2.97129 -0.0957031 4.62404V44.5562C-0.0957031 46.2086 1.249 47.5533 2.90138 47.5533H45.9073C47.5597 47.5533 48.9044 46.2086 48.9044 44.5562V4.62404C48.9044 2.97129 47.5597 1.62695 45.9073 1.62695ZM45.9073 46.1178H2.90138C2.04042 46.1178 1.33985 45.4172 1.33985 44.5562V11.6242H5.34107C5.73771 11.6242 6.05884 11.3031 6.05884 10.9064C6.05884 10.5102 5.73771 10.1887 5.34107 10.1887H1.33985V4.62404C1.33985 3.76308 2.04042 3.0625 2.90138 3.0625H45.9073C46.7683 3.0625 47.4688 3.76308 47.4688 4.62404V10.1887H8.02076C7.62449 10.1887 7.30299 10.5102 7.30299 10.9064C7.30299 11.3031 7.62449 11.6242 8.02076 11.6242H47.4688V44.5562C47.4688 45.4172 46.7683 46.1178 45.9073 46.1178Z" fill="url(#paint4_linear_1_703)"/>
<path d="M40.521 13.4138H34.2479C32.9948 13.4138 31.9754 14.4333 31.9754 15.6864V16.5548C31.2393 16.7885 30.6572 17.3709 30.4243 18.1074L19.2132 18.1496C18.9795 17.4154 18.3982 16.8348 17.6636 16.6016V15.7335C17.6636 14.4804 16.6441 13.4609 15.391 13.4609H9.11835C7.86524 13.4609 6.84577 14.4804 6.84577 15.7335V22.0062C6.84577 23.2593 7.86524 24.2784 9.11835 24.2784H9.98641C10.2197 25.0141 10.8014 25.5958 11.5371 25.8291V28.7619C11.5371 30.2752 12.7682 31.5062 14.2815 31.5062H21.0428C21.276 32.2416 21.8577 32.8233 22.5931 33.0565V33.9743C22.5931 35.2002 23.5905 36.1976 24.8163 36.1976H25.7887C25.995 36.9168 26.5326 37.497 27.225 37.7628C27.0186 38.1741 26.5932 38.4567 26.1031 38.4567H18.4363C18.2505 37.6294 17.6326 36.9639 16.8333 36.7101V35.8417C16.8333 34.5886 15.8138 33.5691 14.5607 33.5691H8.28768C7.03494 33.5691 6.01547 34.5886 6.01547 35.8417V42.1147C6.01547 43.3678 7.03494 44.3869 8.28768 44.3869H14.5607C15.8138 44.3869 16.8333 43.3678 16.8333 42.1147V41.2463C17.5017 41.0339 18.0434 40.5341 18.3115 39.8922H26.1031C27.3696 39.8922 28.4347 39.0122 28.7188 37.8316C29.5099 37.6092 30.1353 36.9867 30.3622 36.1976H31.1877C32.4139 36.1976 33.4109 35.2002 33.4109 33.9743V32.0861C33.4109 31.6894 33.0898 31.3683 32.6931 31.3683C32.2969 31.3683 31.9754 31.6894 31.9754 32.0861V33.9743C31.9754 34.4087 31.6221 34.762 31.1877 34.762H30.323C29.5768 32.6207 26.5644 32.6375 25.8276 34.762H24.8163C24.3819 34.762 24.0286 34.4087 24.0286 33.9743V33.0565C24.1819 33.0079 24.3266 32.9455 24.4679 32.8666C24.478 32.8565 25.6896 32.2446 25.6896 30.7885C25.6896 29.757 25.0212 28.837 24.0286 28.5204V27.603C24.0286 27.1686 24.3819 26.8153 24.8163 26.8153H31.1877C31.6221 26.8153 31.9754 27.1686 31.9754 27.603V29.4912C31.9754 29.8875 32.2969 30.209 32.6931 30.209C33.0898 30.209 33.4109 29.8875 33.4109 29.4912V27.603C33.4109 26.3771 32.4135 25.3797 31.1877 25.3797H24.8163C23.5905 25.3797 22.5931 26.3771 22.5931 27.603V28.5204C21.8577 28.7536 21.276 29.3353 21.0428 30.0707H14.2818C13.56 30.0707 12.9727 29.4834 12.9727 28.7619V25.8291C13.708 25.5958 14.2897 25.0141 14.523 24.2784H15.3914C16.6441 24.2784 17.6636 23.2593 17.6636 22.0062V21.1377C18.4001 20.9041 18.9821 20.3217 19.2147 19.5852L30.4258 19.5429C30.6594 20.2772 31.2408 20.8581 31.9754 21.091V21.9595C31.9754 23.2126 32.9948 24.232 34.2479 24.232H40.521C41.7737 24.232 42.7932 23.2126 42.7932 21.9595V15.6864C42.7932 14.4333 41.7737 13.4138 40.521 13.4138ZM16.1155 39.9214C15.5951 39.9214 15.1723 39.4982 15.1723 38.9782C15.1723 38.4582 15.5955 38.035 16.1155 38.035C16.6355 38.035 17.0587 38.4582 17.0587 38.9782C17.0587 39.4982 16.6355 39.9214 16.1155 39.9214ZM15.3978 42.1147C15.3978 42.576 15.0224 42.9514 14.5607 42.9514H8.28768C7.82636 42.9514 7.45102 42.576 7.45102 42.1147V35.8417C7.45102 35.38 7.82636 35.0046 8.28768 35.0046H14.5607C15.0224 35.0046 15.3978 35.38 15.3978 35.8417V36.7101C13.1719 37.4193 13.1977 40.545 15.3978 41.2463V42.1147ZM29.0183 35.5456C29.016 36.0637 28.594 36.4843 28.0751 36.4843C27.5566 36.4843 27.1345 36.0637 27.1323 35.5456C27.2504 34.2502 28.905 34.3048 29.0183 35.5456ZM23.454 29.8561C23.9064 29.9256 24.2541 30.3174 24.2541 30.7885C24.2541 31.3096 23.8301 31.7317 23.3109 31.7317C22.7905 31.7317 22.3677 31.3085 22.3677 30.7885C22.3677 30.2131 22.8817 29.7686 23.454 29.8561ZM16.9458 19.8129C16.4258 19.8129 16.0026 19.3897 16.0026 18.8697C16.0026 18.3496 16.4258 17.9265 16.9458 17.9265C17.4658 17.9265 17.889 18.3496 17.889 18.8697C17.889 19.3897 17.4662 19.8129 16.9458 19.8129ZM12.2549 24.5042C11.6829 24.5042 11.2343 23.9939 11.3225 23.4174C11.3917 22.9651 11.7835 22.6178 12.2549 22.6178C12.7745 22.6178 13.1981 23.0402 13.1981 23.5606C13.1981 24.081 12.7749 24.5042 12.2549 24.5042ZM16.2281 22.0062C16.2281 22.4675 15.8527 22.8428 15.391 22.8428H14.523C14.1499 21.6776 12.9644 20.9878 11.7779 21.2301C11.7678 21.2353 10.4332 21.4473 9.98679 22.8428H9.11835C8.65666 22.8428 8.28132 22.4675 8.28132 22.0062V15.7331C8.28132 15.2718 8.65666 14.8961 9.11835 14.8961H15.3914C15.8527 14.8961 16.2281 15.2718 16.2281 15.7331V16.6016C15.2213 16.9223 14.5159 17.8835 14.5701 18.9897C14.5742 18.9994 14.5843 20.6136 16.2281 21.1377V22.0062ZM32.6931 17.8797C33.212 17.8797 33.6363 18.3018 33.6363 18.8229C33.6363 19.3448 33.2113 19.7661 32.6931 19.7661C32.1731 19.7661 31.7499 19.3429 31.7499 18.8229C31.7499 18.3029 32.1731 17.8797 32.6931 17.8797ZM41.3577 21.9595C41.3577 22.4208 40.9823 22.7965 40.521 22.7965H34.2479C33.7863 22.7965 33.4109 22.4208 33.4109 21.9595V21.091C34.4367 20.7643 35.1242 19.7893 35.0689 18.7011V18.7007C35.0192 17.7137 34.3567 16.8561 33.4109 16.5548V15.6864C33.4109 15.2251 33.7863 14.8497 34.2479 14.8497H40.521C40.9823 14.8497 41.3577 15.2251 41.3577 15.6864V21.9595Z" fill="url(#paint5_linear_1_703)"/>
</g>
<defs>
<linearGradient id="paint0_linear_1_703" x1="6.33119" y1="4.21826" x2="6.33119" y2="9.03259" gradientUnits="userSpaceOnUse">
<stop stop-color="#FFB868"/>
<stop offset="1" stop-color="#F78C1E"/>
</linearGradient>
<linearGradient id="paint1_linear_1_703" x1="12.0506" y1="4.21826" x2="12.0506" y2="9.03259" gradientUnits="userSpaceOnUse">
<stop stop-color="#FFB868"/>
<stop offset="1" stop-color="#F78C1E"/>
</linearGradient>
<linearGradient id="paint2_linear_1_703" x1="17.7696" y1="4.21826" x2="17.7696" y2="9.03259" gradientUnits="userSpaceOnUse">
<stop stop-color="#FFB868"/>
<stop offset="1" stop-color="#F78C1E"/>
</linearGradient>
<linearGradient id="paint3_linear_1_703" x1="34.4532" y1="5.90771" x2="34.4532" y2="7.34326" gradientUnits="userSpaceOnUse">
<stop stop-color="#FFB868"/>
<stop offset="1" stop-color="#F78C1E"/>
</linearGradient>
<linearGradient id="paint4_linear_1_703" x1="24.4043" y1="1.62695" x2="24.4043" y2="47.5533" gradientUnits="userSpaceOnUse">
<stop stop-color="#FFB868"/>
<stop offset="1" stop-color="#F78C1E"/>
</linearGradient>
<linearGradient id="paint5_linear_1_703" x1="24.4043" y1="13.4138" x2="24.4043" y2="44.3869" gradientUnits="userSpaceOnUse">
<stop stop-color="#FFB868"/>
<stop offset="1" stop-color="#F78C1E"/>
</linearGradient>
<clipPath id="clip0_1_703">
<rect width="49" height="49" fill="white"/>
</clipPath>
</defs>
</svg>
