<svg width="14" height="14" viewBox="0 0 14 14" fill="none" xmlns="http://www.w3.org/2000/svg">
<g clip-path="url(#clip0_1_48)">
<path fill-rule="evenodd" clip-rule="evenodd" d="M12.0267 1.94357C10.7539 0.668044 9.06089 -0.0334473 7.25771 -0.0334473C3.54318 -0.0334684 0.519892 2.99008 0.519892 6.70735C0.519892 7.89474 0.830916 9.05616 1.42022 10.0766L0.46344 13.5703L4.03708 12.6325C5.0226 13.1694 6.13129 13.4539 7.25671 13.4539H7.25946C10.9742 13.4539 14 10.4304 14 6.71333C14 4.91166 13.2985 3.21965 12.0257 1.94459L12.0267 1.94359L12.0267 1.94357ZM7.25969 12.3165C6.25293 12.3165 5.2669 12.0452 4.40654 11.5348L4.20144 11.4124L2.08074 11.9678L2.64708 9.90078L2.51442 9.68842C1.95058 8.79805 1.65633 7.76756 1.65633 6.7076C1.65633 3.61784 4.16974 1.10346 7.26272 1.10346C8.75836 1.10346 10.1673 1.68828 11.2243 2.74523C12.2818 3.80546 12.8634 5.21118 12.8634 6.70934C12.8609 9.80133 10.3475 12.3157 7.25923 12.3157L7.25974 12.3165L7.25969 12.3165ZM10.3312 8.11879C10.1638 8.0336 9.33466 7.62739 9.18079 7.57119C9.0269 7.51498 8.91471 7.486 8.80056 7.65637C8.68914 7.82376 8.36513 8.20397 8.26646 8.31765C8.16777 8.42933 8.07009 8.4453 7.90273 8.36012C7.73534 8.27493 7.19049 8.0973 6.54771 7.52322C6.04783 7.07705 5.70882 6.52446 5.61013 6.35709C5.51147 6.1897 5.59914 6.09676 5.68484 6.01459C5.76227 5.93963 5.85246 5.81823 5.9374 5.71954C6.0226 5.62087 6.04908 5.55192 6.10502 5.43802C6.16124 5.32634 6.13377 5.22765 6.09155 5.14296C6.04908 5.05804 5.71132 4.22888 5.57367 3.89115C5.43852 3.56113 5.29738 3.60709 5.19369 3.60136C5.09503 3.59635 4.98335 3.59635 4.8722 3.59635C4.76101 3.59635 4.57715 3.63856 4.42327 3.80644C4.26938 3.97383 3.8332 4.38301 3.8332 5.21192C3.8332 6.04105 4.43626 6.84073 4.52095 6.9549C4.60612 7.0663 5.70882 8.76931 7.39809 9.49804C7.79953 9.67066 8.11305 9.77434 8.35739 9.85452C8.76132 9.98193 9.12781 9.96345 9.4176 9.92072C9.74163 9.87301 10.4141 9.51401 10.5553 9.12056C10.6962 8.72684 10.6962 8.39009 10.654 8.3204C10.614 8.24544 10.5026 8.20399 10.3324 8.11778L10.3312 8.11879H10.3312Z" fill="white"/>
</g>
<defs>
<clipPath id="clip0_1_48">
<rect width="13.5366" height="13.5366" fill="white" transform="translate(0.46344)"/>
</clipPath>
</defs>
</svg>
